<?xml version="1.0" standalone="no"?>
<!DOCTYPE svg PUBLIC "-//W3C//DTD SVG 20010904//EN"
 "http://www.w3.org/TR/2001/REC-SVG-20010904/DTD/svg10.dtd">
<svg version="1.0" xmlns="http://www.w3.org/2000/svg"
 width="1024.000000pt" height="1024.000000pt" viewBox="0 0 1024.000000 1024.000000"
 preserveAspectRatio="xMidYMid meet">

<g transform="translate(0.000000,1024.000000) scale(0.100000,-0.100000)"
fill="#000000" stroke="none">
<path d="M5140 8903 c-219 -21 -473 -76 -499 -107 -8 -9 2 -51 35 -152 84
-259 157 -564 139 -582 -3 -3 -5 1 -5 8 0 7 -22 47 -49 89 -26 42 -66 112 -89
156 -22 44 -61 115 -86 158 -26 43 -67 119 -91 168 -34 67 -50 89 -65 89 -26
0 -228 -101 -234 -117 -3 -7 10 -34 28 -60 64 -94 229 -409 353 -677 51 -111
215 -481 240 -543 3 -7 -31 -28 -81 -51 -177 -83 -317 -198 -440 -362 -124
-165 -190 -302 -243 -503 l-27 -102 -3 -670 -3 -670 121 -122 c68 -68 124
-123 126 -123 3 0 4 10 3 23 -1 12 -2 333 -1 712 l1 690 144 48 c250 85 567
251 795 418 62 46 119 88 126 93 9 6 26 -2 56 -26 215 -174 748 -444 1007
-509 50 -12 52 -14 52 -47 l0 -34 -67 6 c-123 13 -197 28 -297 63 -215 74
-391 191 -612 405 -61 60 -114 108 -118 108 -3 0 -7 -344 -8 -764 l-3 -765
-99 106 -98 105 4 127 c3 69 3 154 0 187 l-4 62 -146 52 c-173 62 -393 160
-475 213 -31 20 -60 37 -62 37 -3 0 -5 -100 -5 -223 l0 -223 28 -26 c41 -39
155 -110 270 -167 l102 -52 0 -597 0 -597 155 -155 155 -155 -2 658 c-2 361 0
657 4 657 3 0 46 -43 94 -95 l88 -96 98 98 98 98 0 -660 0 -660 155 155 155
155 0 596 0 597 93 47 c106 55 249 145 290 183 l27 26 0 223 c0 123 4 223 8
223 10 0 22 -257 21 -455 l0 -140 -62 -54 c-34 -29 -99 -79 -144 -110 l-82
-56 -1 -431 c0 -237 3 -444 6 -460 l6 -29 66 63 c37 35 121 116 187 181 66 64
134 128 150 142 17 14 85 82 153 151 l123 127 -4 673 c-4 645 -5 677 -25 761
-42 175 -134 365 -249 515 -111 145 -298 295 -452 363 -62 28 -71 35 -65 53
12 42 179 415 266 597 100 210 237 476 305 592 33 56 42 81 35 90 -20 24 -200
109 -224 105 -17 -2 -31 -19 -53 -63 -16 -33 -89 -168 -161 -300 -73 -132
-141 -258 -153 -280 -27 -50 -26 -37 3 115 30 159 86 365 131 485 19 51 35
100 35 108 0 30 -148 66 -398 97 -189 24 -222 22 -222 -13 0 -53 -33 -361 -50
-477 -11 -69 -27 -179 -36 -245 -10 -66 -20 -124 -24 -128 -10 -12 -88 566
-106 783 -3 47 -11 88 -18 92 -11 8 -30 8 -96 1z m510 -1205 l0 -91 -57 7
c-32 4 -100 9 -150 13 l-93 6 0 -91 0 -91 -47 -5 c-62 -7 -193 -32 -214 -41
-14 -5 -17 15 -22 182 -3 103 -3 191 -1 194 2 4 134 7 294 7 l290 1 0 -91z
m-225 -595 c40 -27 150 -91 244 -143 l170 -95 26 -83 c14 -45 28 -89 31 -97 8
-20 -13 -12 -86 30 -30 18 -100 58 -155 90 -55 32 -146 87 -203 122 l-102 64
-78 -54 c-277 -195 -923 -524 -922 -471 0 5 19 49 43 97 l42 88 163 79 c227
109 695 370 737 411 12 12 7 15 90 -38z"/>
<path d="M4025 7741 c-317 -155 -548 -304 -790 -506 -499 -417 -879 -970
-1072 -1555 -215 -655 -238 -1284 -72 -1955 84 -338 255 -722 457 -1024 l57
-85 5 45 c3 24 7 227 9 450 l3 405 -41 132 c-48 158 -94 385 -117 582 -20 179
-15 607 10 761 46 288 131 582 228 792 232 497 582 928 1012 1247 210 155 497
319 684 391 34 13 62 28 62 32 0 5 -36 76 -80 158 -44 82 -89 169 -100 194
-11 25 -23 45 -27 44 -4 0 -107 -49 -228 -108z"/>
<path d="M6356 7651 c-53 -104 -96 -193 -96 -198 0 -5 62 -38 138 -73 459
-216 788 -454 1095 -795 421 -467 668 -987 762 -1605 47 -308 24 -760 -55
-1086 l-30 -122 0 -539 1 -538 27 32 c15 17 59 89 99 160 233 419 355 781 419
1248 25 186 31 623 10 805 -55 473 -213 964 -431 1337 -379 645 -904 1128
-1586 1456 -175 85 -226 107 -244 107 -7 0 -56 -85 -109 -189z"/>
<path d="M2946 5458 c2 -145 6 -1180 8 -2301 2 -1121 6 -2040 9 -2043 3 -3 41
19 84 48 43 30 113 74 156 98 l77 44 0 1550 1 1551 139 -144 140 -143 0 -1324
0 -1325 48 32 c26 18 70 51 97 74 28 23 78 61 111 84 34 22 67 47 73 55 8 9
12 283 13 955 l3 941 240 -257 c132 -141 330 -354 440 -472 110 -118 302 -323
426 -456 124 -132 252 -269 285 -304 l60 -64 209 223 c116 123 248 264 295
315 139 150 819 874 896 954 l72 75 -2 -940 c-1 -516 0 -948 2 -959 2 -12 41
-45 100 -85 53 -36 124 -86 156 -113 33 -26 65 -46 70 -44 6 2 12 17 14 33 2
23 35 63 142 173 77 78 144 140 150 136 6 -4 10 -91 10 -249 0 -231 1 -245 21
-270 19 -25 251 -186 268 -186 10 0 21 1768 21 3367 0 1059 -2 1233 -14 1226
-16 -9 -122 -122 -396 -424 -107 -117 -288 -313 -401 -434 -210 -225 -353
-379 -654 -705 -93 -101 -264 -286 -380 -410 -190 -203 -462 -499 -544 -590
l-31 -35 -28 31 c-32 37 -546 596 -647 704 -119 129 -274 297 -450 490 -92
102 -250 272 -349 379 -100 107 -232 251 -295 320 -63 69 -148 162 -190 206
-42 44 -159 169 -261 278 -101 108 -188 197 -191 197 -4 0 -5 -118 -3 -262z"/>
</g>
</svg>
